<svg xmlns="http://www.w3.org/2000/svg" viewBox="0 0 330.25 90.97998">
  <title>Element 3luxia3color</title>
  <g id="7b3eb02d-50de-4a57-a7ed-be2335917c20" data-name="Ebene 2">
    <g id="d8f44e83-6368-4731-9825-bed3d53d86d5" data-name="Ebene 1">
      <g>
        <path d="M104.18,4.67V6.36a3.52477,3.52477,0,0,1-1.04,2.51L52.52,59.4a8.94065,8.94065,0,0,1-6.31,2.61H24.57a3.03494,3.03494,0,0,1-2.16-5.17L77.33,1.59A3.5572,3.5572,0,0,1,79.85.54L100.4.56a3.54188,3.54188,0,0,1,2.51,1.04A4.32833,4.32833,0,0,1,104.18,4.67Z" fill="#4242e5"/>
        <path d="M168.33,32.07v3.8a3.8209,3.8209,0,0,1-1.12,2.71L144.89,60.9a3.8035,3.8035,0,0,1-2.71,1.12H76.9a3.82059,3.82059,0,0,1-2.71-1.12l-1.63-1.63a3.83868,3.83868,0,0,1-.01-5.41L124.31,1.7A3.79431,3.79431,0,0,1,127.04.57l15.1.04a3.85732,3.85732,0,0,1,2.7,1.12l.71.71a3.82063,3.82063,0,0,1,1.12,2.71V6.29A3.82076,3.82076,0,0,1,145.55,9L114.23,40.32a.46456.46456,0,0,0,.33.79h18.67a3.821,3.821,0,0,0,2.71-1.12l14.88-14.88a3.80336,3.80336,0,0,1,2.71-1.12h6.73a3.83786,3.83786,0,0,1,2.71,1.12l4.24,4.25A3.82089,3.82089,0,0,1,168.33,32.07Z" fill="#4242e5"/>
        <path d="M93.22,73.43v2.26a3.00088,3.00088,0,0,1-.87,2.1L80.03,90.1a2.94129,2.94129,0,0,1-2.1.87H24.08a1.08616,1.08616,0,0,1-.18006.01H5.59A3.58419,3.58419,0,0,1,3.08,89.94L1.04,87.89a3.54894,3.54894,0,0,1-.01-5.01l9.15-9.2a11.52836,11.52836,0,0,1,8.16-3.4H41.61l48.65.18a3.03925,3.03925,0,0,1,2.09.87A3.00087,3.00087,0,0,1,93.22,73.43Z" fill="#4242e5"/>
        <path d="M190.54,23.95,182.55,31.94a3.94124,3.94124,0,0,1-5.59,0L152.12,7.09a3.93529,3.93529,0,0,1,0-5.58l.16-.17A3.95145,3.95145,0,0,1,155.07.19h16.2a3.93371,3.93371,0,0,1,2.83,1.2l16.49,17.02A3.96327,3.96327,0,0,1,190.54,23.95Z" fill="#4242e5"/>
        <path d="M234.81,63.26a2.93832,2.93832,0,0,1-2.94,2.94H214.06a2.94444,2.94444,0,0,1-2.08-.86l-4.87-4.88a2.94437,2.94437,0,0,1-.86-2.08V56.63a2.9444,2.9444,0,0,1,.86-2.08l6.68-6.68a2.91535,2.91535,0,0,1,2.06-.86l2.68-.02a2.96777,2.96777,0,0,1,2.09.86l13.33,13.33A2.94437,2.94437,0,0,1,234.81,63.26Z" fill="#4242e5"/>
        <path d="M298.78,3.87V6.6a2.95051,2.95051,0,0,1-.86,2.09L255.89,50.72a2.95264,2.95264,0,0,1-2.09.87H239.64a2.91829,2.91829,0,0,1-2.09-.87l-3.07-3.06a2.99523,2.99523,0,0,1-.87-2.09,2.95969,2.95969,0,0,1,.87-2.09L276.55,1.41a2.93543,2.93543,0,0,1,2.09-.87c3.47,0,13.36,0,16.82.01a2.95031,2.95031,0,0,1,2.09.86l.37.37A2.96777,2.96777,0,0,1,298.78,3.87Z" fill="#4242e5"/>
        <path d="M330.25,4.45V20.66a1.69308,1.69308,0,0,1-.51,1.22L298.72,52.91a1.6845,1.6845,0,0,0-.51,1.2,1.72507,1.72507,0,0,0,1.73,1.74,1.737,1.737,0,0,1,1.73,1.73v5.25a1.71006,1.71006,0,0,1-.51,1.22l-5.47,5.47a1.7249,1.7249,0,0,1-1.22.5H281.95a1.69311,1.69311,0,0,0-1.22.51L260.88,90.37a1.69335,1.69335,0,0,1-1.22.51H203.57a1.69336,1.69336,0,0,1-1.22-.51l-1.95-1.95a1.69332,1.69332,0,0,1-.51-1.22v-.8a1.6933,1.6933,0,0,1,.51-1.22L212.37,73.2a1.7251,1.7251,0,0,1,1.22-.5h33.32a8.62439,8.62439,0,0,0,6.08-2.52L322.03,1.14A3.891,3.891,0,0,1,324.78,0h.8a3.93779,3.93779,0,0,1,2.78,1.16l.91.92A3.345,3.345,0,0,1,330.25,4.45Z" fill="#4242e5"/>
        <path d="M329.99,47.49V75.5a3.30158,3.30158,0,0,1-.97,2.33L316.86,89.99a3.27472,3.27472,0,0,1-2.33.96H296.29a3.29469,3.29469,0,0,1-3.3-3.29V85.32a3.26677,3.26677,0,0,1,.97-2.33l14.25-14.25a3.29193,3.29193,0,0,0,.96-2.33v-7.9a3.30164,3.30164,0,0,1,.97-2.33l12.05-12.05a3.30142,3.30142,0,0,1,2.33-.97H325.66a3.30728,3.30728,0,0,1,2.34.97c.33.34.7.71,1.03,1.04A3.311,3.311,0,0,1,329.99,47.49Z" fill="#4242e5"/>
        <path d="M255.07,2.47v.57L220.2,37.91a5.54962,5.54962,0,0,1-3.92,1.63h-2.29a5.56314,5.56314,0,0,0-3.93,1.62l-9.26,9.26a5.57275,5.57275,0,0,0-1.63,3.93,5.53982,5.53982,0,0,1-1.62,3.92L167,88.82a5.42842,5.42842,0,0,1-1.91,1.24l-.05.05a3.00088,3.00088,0,0,1-2.1.87H104.68a3.00083,3.00083,0,0,1-2.1-.87l-1.26-1.26a2.97581,2.97581,0,0,1-.87-2.1v-.51a2.9386,2.9386,0,0,1,.84-2.06l12.46-12.85a2.96565,2.96565,0,0,1,2.08-.9c5.5-.09,23.24-.06,38.19-.03L222.38,2.04A5.53985,5.53985,0,0,1,226.3.42h23.82A7.0011,7.0011,0,0,1,255.07,2.47Z" fill="#4242e5"/>
      </g>
    </g>
  </g>
</svg>
